<svg width="40" height="40" viewBox="0 0 40 40" fill="none" xmlns="http://www.w3.org/2000/svg">
<path d="M20 38C30.3333 38 38 30.3333 38 20C38 9.66667 30.3333 2 20 2C9.66667 2 2 9.66667 2 20C2 30.3333 9.66667 38 20 38Z" fill="#E1F5FE"/>
<path d="M6.66669 25C9.58335 21.6667 14.5834 18.3333 20 18.3333C25.4167 18.3333 30.4167 21.6667 33.3334 25" stroke="#2196F3" stroke-width="2" stroke-linecap="round" stroke-linejoin="round"/>
<path d="M9.16669 30C12.0834 26.6667 17.0834 23.3333 22.5 23.3333C26.5834 23.3333 30.5 25.1667 33.3334 27.5" stroke="#2196F3" stroke-width="2" stroke-linecap="round" stroke-linejoin="round"/>
<path d="M17.5 15C18.5788 13.9142 19.2638 12.4933 19.4584 11.001C19.6529 9.50865 19.3468 7.98687 18.5833 6.66667C16.5 10 14.1667 12.0833 11.6667 13.3333" stroke="#2196F3" stroke-width="2" stroke-linecap="round" stroke-linejoin="round"/>
</svg>
