<svg width="40" height="40" viewBox="0 0 40 40" fill="none" xmlns="http://www.w3.org/2000/svg">
<path d="M20 38C30.3333 38 38 30.3333 38 20C38 9.66667 30.3333 2 20 2C9.66667 2 2 9.66667 2 20C2 30.3333 9.66667 38 20 38Z" fill="#FFF3E0"/>
<path d="M11.6667 35V20.8333C11.6667 18.6232 12.5446 16.5075 14.1074 14.9447C15.6702 13.3819 17.7859 12.5 20 12.5C22.2141 12.5 24.3298 13.3819 25.8926 14.9447C27.4554 16.5075 28.3333 18.6232 28.3333 20.8333V35" stroke="#FF9800" stroke-width="2" stroke-linecap="round" stroke-linejoin="round"/>
<path d="M11.6667 26.6667H28.3333" stroke="#FF9800" stroke-width="2" stroke-linecap="round" stroke-linejoin="round"/>
<path d="M20 12.5V7.5" stroke="#FF9800" stroke-width="2" stroke-linecap="round" stroke-linejoin="round"/>
<path d="M15.8333 12.5L13.3333 9.16667" stroke="#FF9800" stroke-width="2" stroke-linecap="round" stroke-linejoin="round"/>
<path d="M24.1667 12.5L26.6667 9.16667" stroke="#FF9800" stroke-width="2" stroke-linecap="round" stroke-linejoin="round"/>
</svg>
